<svg fill="none" height="110" width="459" xmlns="http://www.w3.org/2000/svg"><clipPath id="a"><path d="M0 0h459v110H0z"/></clipPath><g clip-path="url(#a)"><g clip-rule="evenodd" fill="#0ca678" fill-rule="evenodd"><path d="M459 15H0v-1h459zM459 95H0v-1h459zM459 87H0v-1h459zM459 25H0v-1h459z"/><path d="M308 110V0h1v110zM321 110V0h1v110zM414 111V1h1v110zM427 110V0h1v110zM170 110V0h1v110zM289 110V0h1v110zM32 110V0h1v110zM46 110V0h1v110zM137 110V0h1v110zM151 110V0h1v110z"/></g><path d="M368 48.793c-7.935 0-14.375 6.25-14.375 13.952s6.44 13.952 14.375 13.952 14.375-6.25 14.375-13.952-6.44-13.952-14.375-13.952zm37.375-33.484h-34.672c-1.783 0-3.508.39-5.118 1.172l-9.085 4.408h-5.75V18.1c0-1.563-1.265-2.79-2.875-2.79h-11.5c-1.61 0-2.875 1.227-2.875 2.79v2.79h-2.875c-4.772 0-8.625 3.74-8.625 8.371v55.808c0 4.631 3.853 8.37 8.625 8.37h74.75c4.772 0 8.625-3.739 8.625-8.37V23.68c0-4.632-3.853-8.371-8.625-8.371zM368 82.277c-11.097 0-20.125-8.762-20.125-19.532 0-10.771 9.028-19.533 20.125-19.533s20.125 8.762 20.125 19.533c0 10.77-9.028 19.532-20.125 19.532zm34.5-39.065h-14.03a29.2 29.2 0 0 0-20.47-8.37 29.201 29.201 0 0 0-20.47 8.37H333.5V32.051h25.702l11.501-5.581H402.5zM187.843 71.116c0 3.162 2.432 5.58 5.614 5.58 3.181 0 5.614-2.418 5.614-5.58s-2.433-5.581-5.614-5.581c-3.182 0-5.614 2.418-5.614 5.58zm17.965-2.79h9.918c-1.497-10.976-10.854-19.533-22.269-19.533-12.351 0-22.457 10.045-22.457 22.323 0 12.277 10.106 22.323 22.457 22.323 11.415 0 20.772-8.557 22.082-19.533h-9.918c-1.31 5.58-6.363 9.673-12.351 9.673-6.925 0-12.726-5.58-12.726-12.65s5.614-12.649 12.726-12.649c6.175.186 11.228 4.465 12.538 10.045zm60.633-19.533c-2.433 0-4.678.372-6.737 1.116l-9.731-17.858h10.854c3.181 0 5.614-2.419 5.614-5.581v-5.58c0-3.163-2.433-5.581-5.614-5.581h-3.556c-1.31 0-2.62.372-3.555 1.302l-8.235 6.883-3.368-5.953c-.749-1.302-2.246-2.232-3.743-2.232h-14.035c-1.497 0-2.807 1.302-2.807 2.79v2.79c0 1.489 1.31 2.79 2.807 2.79h11.602l2.807 5.21-17.216 14.323h-6.737l-3.93-3.906a15.488 15.488 0 0 0-10.854-4.465h-20.586c-1.497 0-2.807 1.302-2.807 2.79v2.79c0 1.489 1.31 2.791 2.807 2.791h14.036c15.532 0 28.071 12.464 28.071 27.904 0 1.86-.188 3.72-.562 5.58h17.966a28.176 28.176 0 0 1-.562-5.58c0-9.115 4.491-17.114 11.229-22.137l2.619 5.023c-4.865 4.092-8.234 10.23-8.234 17.114 0 12.277 10.106 22.323 22.457 22.323s22.457-10.046 22.457-22.323c0-12.278-10.106-22.323-22.457-22.323zm0 34.972c-6.924 0-12.725-5.58-12.725-12.65 0-3.162 1.31-6.138 3.368-8.37l4.304 7.999c.749 1.302 2.433 1.86 3.743 1.116l2.433-1.302c1.31-.744 1.871-2.419 1.123-3.72l-4.117-8c.561-.186 1.31-.186 1.871-.186 6.924 0 12.726 5.58 12.726 12.65s-5.802 12.463-12.726 12.463zM129.744 43.993L123.95 26.75c-2.25-6.808-8.719-11.44-15.975-11.44h-31.95c-7.256 0-13.725 4.632-15.975 11.44l-5.794 17.244C50.038 45.556 47 49.63 47 54.373v33.485c0 3.07 2.531 5.58 5.625 5.58h5.625c3.094 0 5.625-2.51 5.625-5.58v-8.371h56.25v8.37c0 3.07 2.531 5.582 5.625 5.582h5.625c3.094 0 5.625-2.512 5.625-5.581V54.374c0-4.744-3.037-8.818-7.256-10.38zM70.681 30.265a5.623 5.623 0 0 1 5.344-3.795h31.95a5.623 5.623 0 0 1 5.344 3.795l4.331 12.947h-51.3zm-6.806 35.27c-3.094 0-5.625-2.511-5.625-5.58s2.531-5.581 5.625-5.581 5.625 2.51 5.625 5.58-2.531 5.581-5.625 5.581zm50.625-5.58c0-3.07 2.531-5.581 5.625-5.581s5.625 2.51 5.625 5.58-2.531 5.581-5.625 5.581-5.625-2.511-5.625-5.58z" fill="#63e6be"/></g></svg>